<?xml version="1.0" encoding="utf-8"?>
<!-- Generator: Adobe Illustrator 21.0.2, SVG Export Plug-In . SVG Version: 6.00 Build 0)  -->
<svg version="1.1" id="Capa_1" xmlns="http://www.w3.org/2000/svg" xmlns:xlink="http://www.w3.org/1999/xlink" x="0px" y="0px"
	 viewBox="0 0 130 130" style="enable-background:new 0 0 130 130;" xml:space="preserve">
<style type="text/css">
	.st0{fill:#3498DB;}
	.st1{fill:#3587D8;}
</style>
<path class="st0" d="M65.1,3.1c0,0-14.2,17.1-46.9,17.1v40.7c0,21.3,9.2,41.8,26,54.9c5.9,4.7,12.9,8.7,21,11.1
	c8.1-2.4,15.1-6.4,21-11.1c16.7-13.1,26-33.7,26-54.9V20.2C79.4,20.2,65.1,3.1,65.1,3.1z"/>
<path class="st1" d="M18.1,20.2v40.7c0,21.3,9.2,41.8,26,54.9c5.9,4.7,12.9,8.7,21,11.1V3.1C65,3.1,50.8,20.2,18.1,20.2z"/>
</svg>
