<?xml version="1.0" encoding="utf-8"?>
<!-- Generator: Adobe Illustrator 21.0.2, SVG Export Plug-In . SVG Version: 6.00 Build 0)  -->
<svg version="1.1" id="Capa_1" xmlns="http://www.w3.org/2000/svg" xmlns:xlink="http://www.w3.org/1999/xlink" x="0px" y="0px"
	 viewBox="0 0 130 130" style="enable-background:new 0 0 130 130;" xml:space="preserve">
<style type="text/css">
	.st0{fill:#E74C3C;}
	.st1{fill:#D3433C;}
	.st2{display:none;fill:#556080;}
</style>
<path class="st0" d="M65.1,3.1c0,0-14.2,17.1-46.9,17.1v40.7c0,21.3,9.2,41.8,26,54.9c5.9,4.7,12.9,8.7,21,11.1
	c8.1-2.4,15.1-6.4,21-11.1c16.7-13.1,26-33.7,26-54.9V20.2C79.4,20.2,65.1,3.1,65.1,3.1z"/>
<path class="st1" d="M18.1,20.2v40.7c0,21.3,9.2,41.8,26,54.9c5.9,4.7,12.9,8.7,21,11.1V3.1C65,3.1,50.8,20.2,18.1,20.2z"/>
<path class="st2" d="M65,129c-0.2,0-0.4,0-0.6-0.1c-7.6-2.3-14.9-6.1-21.7-11.4c-16.8-13.2-26.8-34.3-26.8-56.6V20.2
	c0-1.2,1-2.1,2.1-2.1C49.4,18,63.2,1.9,63.4,1.7c0.8-1,2.5-1,3.3,0c0.1,0.2,14,16.3,45.2,16.3c1.2,0,2.1,1,2.1,2.1v40.7
	c0,22.3-10,43.4-26.8,56.6c-6.8,5.3-14.1,9.2-21.7,11.4C65.4,129,65.2,129,65,129z M20.2,22.3v38.6c0,21,9.4,40.9,25.1,53.2
	c6.2,4.8,12.8,8.4,19.7,10.5c6.9-2.1,13.5-5.7,19.7-10.5c15.7-12.4,25.1-32.3,25.1-53.2V22.3C83.7,21.7,69.6,10.5,65,6.2
	C60.4,10.5,46.3,21.7,20.2,22.3z"/>
</svg>
