<?xml version="1.0" standalone="no"?>
<!DOCTYPE svg PUBLIC "-//W3C//DTD SVG 20010904//EN"
 "http://www.w3.org/TR/2001/REC-SVG-20010904/DTD/svg10.dtd">
<svg version="1.0" xmlns="http://www.w3.org/2000/svg"
 width="16.000000pt" height="16.000000pt" viewBox="0 0 16.000000 16.000000"
 preserveAspectRatio="xMidYMid meet">
<metadata>
Created by potrace 1.11, written by Peter Selinger 2001-2013
</metadata>
<g transform="translate(0.000000,16.000000) scale(0.006154,-0.006154)"
fill="#000000" stroke="none">
<path d="M1247 2548 c-63 -62 -110 -97 -201 -147 -36 -21 -173 -82 -190 -85
-6 -2 -36 -10 -67 -20 -59 -17 -67 -19 -139 -31 -25 -4 -54 -9 -65 -11 -11 -2
-69 -7 -130 -10 -60 -4 -116 -11 -123 -17 -11 -9 -13 -106 -9 -521 2 -281 7
-524 11 -541 7 -33 28 -132 32 -154 10 -55 65 -196 115 -296 97 -196 233 -358
409 -491 88 -67 265 -160 358 -190 52 -16 53 -16 130 11 265 94 511 291 668
536 76 119 167 327 188 431 3 13 12 57 22 98 14 63 17 155 21 591 4 421 2 517
-9 526 -7 6 -62 13 -123 17 -321 17 -604 125 -790 300 -21 20 -46 36 -56 36
-10 0 -33 -15 -52 -32z"/>
</g>
</svg>
