<?xml version="1.0" standalone="no"?>
<!DOCTYPE svg PUBLIC "-//W3C//DTD SVG 20010904//EN"
 "http://www.w3.org/TR/2001/REC-SVG-20010904/DTD/svg10.dtd">
<svg version="1.0" xmlns="http://www.w3.org/2000/svg"
 width="16.000000pt" height="16.000000pt" viewBox="0 0 16.000000 16.000000"
 preserveAspectRatio="xMidYMid meet">
<metadata>
Created by potrace 1.11, written by Peter Selinger 2001-2013
</metadata>
<g transform="translate(0.000000,16.000000) scale(0.006130,-0.006130)"
fill="#000000" stroke="none">
<path d="M1255 2503 c-67 -59 -139 -106 -235 -154 -180 -88 -359 -129 -632
-143 l-23 -1 0 -460 c0 -253 4 -493 8 -534 19 -177 97 -403 194 -564 58 -95
182 -247 248 -302 27 -22 53 -45 59 -51 55 -54 279 -178 376 -209 56 -17 56
-17 130 9 342 123 641 428 776 790 13 34 54 183 69 248 14 64 19 209 19 612
l1 459 -50 3 c-133 8 -225 18 -265 29 -8 2 -30 7 -47 10 -166 28 -412 149
-533 261 l-45 42 -50 -45z"/>
</g>
</svg>
